<svg width="119" height="42" viewBox="0 0 119 42" fill="none" xmlns="http://www.w3.org/2000/svg">
<path d="M110.994 41.6666H7.35243C3.28903 41.6666 0 38.3775 0 34.3141V7.35243C0 3.28902 3.28903 0 7.35243 0H110.994C115.058 0 118.347 3.28902 118.347 7.35243V34.3141C118.347 38.3775 115.049 41.6666 110.994 41.6666Z" fill="black"/>
<path d="M11.3075 16.8696C8.77619 21.2661 10.3832 27.944 13.1893 31.9908C14.5882 34.0142 16.0037 35.8294 17.9438 35.8294C17.9771 35.8294 18.0188 35.8294 18.0521 35.8294C18.9597 35.7961 19.6258 35.513 20.2586 35.2382C20.9747 34.9301 21.7158 34.622 22.8732 34.622C23.9807 34.622 24.6801 34.9301 25.3629 35.2215C26.0373 35.513 26.7284 35.8127 27.7443 35.7961C29.9342 35.7544 31.2748 33.7977 32.4572 32.0657C33.6895 30.2588 34.314 28.5102 34.5222 27.8358L34.5305 27.8108C34.5722 27.6942 34.5139 27.561 34.3973 27.511L34.3806 27.5027C33.9976 27.3445 30.617 25.8457 30.5837 21.7657C30.5504 18.4516 33.115 16.6947 33.6312 16.3783L33.6562 16.3617C33.7145 16.3284 33.7478 16.2701 33.7645 16.2034C33.7811 16.1368 33.7645 16.0702 33.7228 16.0119C31.9493 13.4223 29.2348 13.031 28.144 12.981C27.9858 12.9644 27.8192 12.9561 27.661 12.9561C26.3787 12.9561 25.1464 13.439 24.1638 13.8304C23.4811 14.0968 22.8899 14.33 22.4902 14.33C22.0322 14.33 21.441 14.0968 20.7582 13.822C19.8423 13.4557 18.8015 13.0476 17.7024 13.0476C17.6774 13.0476 17.6524 13.0476 17.6274 13.0476C15.0628 13.081 12.6481 14.5464 11.3075 16.8696Z" fill="white"/>
<path d="M28.1605 5.84521C26.6118 5.91182 24.7549 6.86106 23.6392 8.16835C22.6982 9.25914 21.774 11.0827 22.0155 12.9229C22.0321 13.0394 22.1237 13.1227 22.2403 13.1394C22.3485 13.1477 22.4484 13.1477 22.5567 13.1477C24.0721 13.1477 25.7042 12.3067 26.8199 10.9578C27.994 9.53392 28.5852 7.70206 28.4103 6.06171C28.402 5.93681 28.2854 5.83689 28.1605 5.84521Z" fill="white"/>
<path d="M42.5823 9.71721C43.0735 9.64227 43.6481 9.58398 44.2892 9.58398C45.4466 9.58398 46.2627 9.85044 46.8122 10.3584C47.3618 10.8663 47.6865 11.5824 47.6865 12.5899C47.6865 13.6058 47.3701 14.4384 46.7956 15.0046C46.2127 15.5875 45.2551 15.8956 44.0478 15.8956C43.4732 15.8956 42.9986 15.8706 42.5906 15.8207V9.71721H42.5823ZM43.3816 15.2211C43.5815 15.2544 43.8812 15.2628 44.1976 15.2628C45.9129 15.2628 46.8455 14.3052 46.8455 12.6232C46.8538 11.1577 46.0212 10.2251 44.3225 10.2251C43.9062 10.2251 43.5981 10.2584 43.3816 10.3084V15.2211Z" fill="white"/>
<path d="M52.7658 13.5892C52.7658 15.2378 51.6167 15.9623 50.5425 15.9623C49.3352 15.9623 48.4026 15.0796 48.4026 13.6641C48.4026 12.1653 49.3851 11.291 50.6175 11.291C51.8915 11.291 52.7658 12.2153 52.7658 13.5892ZM49.2186 13.6308C49.2186 14.6133 49.7765 15.3461 50.5758 15.3461C51.3502 15.3461 51.9331 14.6217 51.9331 13.6142C51.9331 12.8564 51.5584 11.8989 50.5925 11.8989C49.6349 11.8989 49.2186 12.7815 49.2186 13.6308Z" fill="white"/>
<path d="M54.0314 11.3906L54.6226 13.6555C54.7559 14.1551 54.8724 14.613 54.9557 15.071H54.9807C55.0806 14.6214 55.2305 14.1384 55.3804 13.6638L56.1048 11.3906H56.7876L57.4787 13.6222C57.6452 14.1551 57.7784 14.6297 57.8784 15.0793H57.9033C57.9783 14.6297 58.0949 14.1551 58.2447 13.6305L58.8776 11.3906H59.6769L58.2364 15.8537H57.4953L56.8126 13.7221C56.6543 13.2225 56.5294 12.7812 56.4129 12.2566H56.3962C56.288 12.7895 56.1464 13.2558 55.9882 13.7304L55.2721 15.8537H54.531L53.1821 11.3906H54.0314Z" fill="white"/>
<path d="M60.4845 12.5983C60.4845 12.1404 60.4762 11.7573 60.4512 11.391H61.1673L61.2172 12.1237H61.2339C61.4504 11.699 61.9666 11.2827 62.7077 11.2827C63.3239 11.2827 64.2814 11.6574 64.2814 13.1812V15.8457H63.4654V13.2728C63.4654 12.5567 63.199 11.9572 62.4329 11.9572C61.9 11.9572 61.4837 12.3319 61.3421 12.7898C61.3088 12.8898 61.2838 13.0313 61.2838 13.1645V15.8457H60.4678V12.5983H60.4845Z" fill="white"/>
<path d="M65.5972 9.30078H66.4132V15.8539H65.5972V9.30078Z" fill="white"/>
<path d="M71.8087 13.5892C71.8087 15.2378 70.6596 15.9623 69.5855 15.9623C68.3781 15.9623 67.4456 15.0796 67.4456 13.6641C67.4456 12.1653 68.4281 11.291 69.6604 11.291C70.9428 11.291 71.8087 12.2153 71.8087 13.5892ZM68.2699 13.6308C68.2699 14.6133 68.8278 15.3461 69.6271 15.3461C70.4015 15.3461 70.9844 14.6217 70.9844 13.6142C70.9844 12.8564 70.6097 11.8989 69.6438 11.8989C68.6862 11.8989 68.2699 12.7815 68.2699 13.6308Z" fill="white"/>
<path d="M75.2978 15.854L75.2312 15.2878H75.2062C74.9564 15.6375 74.4818 15.9539 73.8407 15.9539C72.9331 15.9539 72.4751 15.3211 72.4751 14.6716C72.4751 13.5892 73.4327 12.998 75.1563 13.0146V12.923C75.1563 12.5567 75.0564 11.8905 74.1404 11.8905C73.7241 11.8905 73.2911 12.0154 72.9747 12.2236L72.7915 11.6907C73.1579 11.4492 73.6908 11.291 74.257 11.291C75.6226 11.291 75.9556 12.2236 75.9556 13.1146V14.7882C75.9556 15.1712 75.9723 15.5543 76.0306 15.854H75.2978ZM75.1813 13.5725C74.2903 13.5559 73.2911 13.7141 73.2911 14.58C73.2911 15.1046 73.6408 15.3544 74.0572 15.3544C74.64 15.3544 75.0064 14.9797 75.1313 14.605C75.1563 14.5218 75.1813 14.4302 75.1813 14.3469V13.5725Z" fill="white"/>
<path d="M81.118 9.30078V14.6965C81.118 15.0961 81.1263 15.5458 81.1513 15.8539H80.4269L80.3936 15.0795H80.3769C80.1271 15.5791 79.5859 15.9538 78.8532 15.9538C77.7707 15.9538 76.938 15.0378 76.938 13.6889C76.9297 12.2068 77.854 11.2909 78.9448 11.2909C79.6275 11.2909 80.0855 11.6156 80.2937 11.9736H80.3103V9.30911H81.118V9.30078ZM80.3103 13.206C80.3103 13.1061 80.302 12.9645 80.277 12.8646C80.1605 12.3483 79.7191 11.9237 79.103 11.9237C78.262 11.9237 77.7624 12.6564 77.7624 13.6473C77.7624 14.5549 78.2037 15.296 79.078 15.296C79.6192 15.296 80.1188 14.9379 80.2687 14.3301C80.2937 14.2218 80.302 14.1053 80.302 13.9804V13.206H80.3103Z" fill="white"/>
<path d="M88.4454 13.5892C88.4454 15.2378 87.2964 15.9623 86.2222 15.9623C85.0149 15.9623 84.0823 15.0796 84.0823 13.6641C84.0823 12.1653 85.0648 11.291 86.2972 11.291C87.5795 11.291 88.4454 12.2153 88.4454 13.5892ZM84.9066 13.6308C84.9066 14.6133 85.4645 15.3461 86.2639 15.3461C87.0382 15.3461 87.6211 14.6217 87.6211 13.6142C87.6211 12.8564 87.2464 11.8989 86.2805 11.8989C85.3229 11.8989 84.9066 12.7815 84.9066 13.6308Z" fill="white"/>
<path d="M89.4613 12.5983C89.4613 12.1404 89.453 11.7573 89.428 11.391H90.1441L90.194 12.1237H90.2107C90.4272 11.699 90.9434 11.2827 91.6845 11.2827C92.3007 11.2827 93.2582 11.6574 93.2582 13.1812V15.8457H92.4422V13.2728C92.4422 12.5567 92.1758 11.9572 91.4097 11.9572C90.8768 11.9572 90.4605 12.3319 90.3189 12.7898C90.2856 12.8898 90.2606 13.0313 90.2606 13.1645V15.8457H89.4446V12.5983H89.4613Z" fill="white"/>
<path d="M97.5049 10.1084V11.3907H98.6706V12.0069H97.5049V14.4133C97.5049 14.9712 97.6631 15.2792 98.1127 15.2792C98.3209 15.2792 98.4791 15.2543 98.579 15.221L98.6123 15.8288C98.4541 15.8954 98.2043 15.9371 97.8962 15.9371C97.5215 15.9371 97.2134 15.8205 97.0219 15.5957C96.7888 15.3542 96.7055 14.9628 96.7055 14.4299V11.9902H96.0144V11.374H96.7055V10.3166L97.5049 10.1084Z" fill="white"/>
<path d="M99.5699 9.30078H100.386V12.0819H100.403C100.536 11.8487 100.736 11.6489 100.985 11.5073C101.227 11.3658 101.51 11.2742 101.818 11.2742C102.418 11.2742 103.375 11.6489 103.375 13.181V15.8372H102.559V13.2726C102.559 12.5565 102.293 11.9487 101.527 11.9487C101.002 11.9487 100.586 12.315 100.436 12.7563C100.386 12.8646 100.378 12.9895 100.378 13.1477V15.8372H99.5615V9.30078H99.5699Z" fill="white"/>
<path d="M105.132 13.7724C105.149 14.8715 105.848 15.3211 106.664 15.3211C107.247 15.3211 107.597 15.2212 107.896 15.088L108.038 15.6708C107.755 15.8041 107.264 15.9456 106.556 15.9456C105.182 15.9456 104.358 15.038 104.358 13.6974C104.358 12.3485 105.149 11.291 106.448 11.291C107.905 11.291 108.296 12.5733 108.296 13.3977C108.296 13.5642 108.28 13.6891 108.271 13.7724H105.132ZM107.513 13.1895C107.522 12.6732 107.305 11.8739 106.389 11.8739C105.565 11.8739 105.207 12.6316 105.149 13.1895H107.513Z" fill="white"/>
<path d="M44.8889 27.736L43.7648 31.1499H42.3159L46.0046 20.3003H47.6949L51.392 31.1499H49.8932L48.7358 27.736H44.8889ZM48.4443 26.6369L47.3868 23.5144C47.1454 22.8066 46.9872 22.1655 46.8206 21.5326H46.7873C46.6291 22.1738 46.4459 22.8399 46.2378 23.4977L45.1803 26.6369H48.4443Z" fill="white"/>
<path d="M52.8908 25.904C52.8908 24.9048 52.8575 24.0971 52.8242 23.356H54.0982L54.1648 24.6966H54.1981C54.781 23.7474 55.6969 23.1812 56.9626 23.1812C58.8444 23.1812 60.2599 24.7715 60.2599 27.1446C60.2599 29.9424 58.553 31.3246 56.7211 31.3246C55.6886 31.3246 54.7893 30.875 54.323 30.1006H54.2897V34.3305H52.8908V25.904ZM54.2897 27.9773C54.2897 28.1855 54.323 28.377 54.3563 28.5518C54.6144 29.5344 55.4638 30.2088 56.4796 30.2088C57.9784 30.2088 58.8444 28.9848 58.8444 27.2029C58.8444 25.6375 58.02 24.3052 56.5213 24.3052C55.5554 24.3052 54.6561 24.9964 54.3813 26.0539C54.3313 26.2287 54.2814 26.4369 54.2814 26.6367V27.9773H54.2897Z" fill="white"/>
<path d="M62.05 25.904C62.05 24.9048 62.0167 24.0971 61.9834 23.356H63.2574L63.324 24.6966H63.3573C63.9402 23.7474 64.8561 23.1812 66.1217 23.1812C68.0036 23.1812 69.4191 24.7715 69.4191 27.1446C69.4191 29.9424 67.7121 31.3246 65.8803 31.3246C64.8478 31.3246 63.9485 30.875 63.4822 30.1006H63.4489V34.3305H62.05V25.904ZM63.4489 27.9773C63.4489 28.1855 63.4822 28.377 63.5155 28.5518C63.7736 29.5344 64.6229 30.2088 65.6388 30.2088C67.1376 30.2088 68.0036 28.9848 68.0036 27.2029C68.0036 25.6375 67.1792 24.3052 65.6804 24.3052C64.7145 24.3052 63.8153 24.9964 63.5405 26.0539C63.4905 26.2287 63.4406 26.4369 63.4406 26.6367V27.9773H63.4489Z" fill="white"/>
<path d="M74.4816 29.443C75.1061 29.826 76.022 30.1508 76.9879 30.1508C78.4201 30.1508 79.2528 29.3931 79.2528 28.3023C79.2528 27.2864 78.6699 26.7119 77.2127 26.1457C75.4475 25.5212 74.3484 24.5969 74.3484 23.0731C74.3484 21.3828 75.7472 20.1255 77.8539 20.1255C78.9696 20.1255 79.769 20.3836 80.252 20.6584L79.8689 21.7991C79.5109 21.6076 78.7948 21.2829 77.8122 21.2829C76.3301 21.2829 75.7722 22.1655 75.7722 22.9066C75.7722 23.9224 76.43 24.422 77.9288 24.9966C79.7607 25.7043 80.6933 26.587 80.6933 28.1857C80.6933 29.8593 79.4526 31.3082 76.8963 31.3082C75.8472 31.3082 74.7064 31.0001 74.1235 30.6171L74.4816 29.443Z" fill="white"/>
<path d="M84.2239 21.1162V23.3561H86.2556V24.4302H84.2239V28.6352C84.2239 29.6011 84.4986 30.1506 85.2813 30.1506C85.656 30.1506 85.9225 30.1007 86.1057 30.059L86.1723 31.1165C85.8975 31.2248 85.4645 31.308 84.915 31.308C84.2572 31.308 83.7243 31.0999 83.3912 30.7085C82.9915 30.2922 82.8416 29.5927 82.8416 28.6768V24.4302H81.6343V23.3561H82.8416V21.4909L84.2239 21.1162Z" fill="white"/>
<path d="M94.7988 27.1863C94.7988 30.0673 92.8004 31.3246 90.9186 31.3246C88.8119 31.3246 87.1882 29.7759 87.1882 27.3195C87.1882 24.7133 88.8952 23.1812 91.0518 23.1812C93.2917 23.1812 94.7988 24.8049 94.7988 27.1863ZM88.6204 27.2695C88.6204 28.9765 89.603 30.2671 90.9852 30.2671C92.3341 30.2671 93.35 28.9932 93.35 27.2446C93.35 25.929 92.6921 24.247 91.0185 24.247C89.3448 24.2386 88.6204 25.7874 88.6204 27.2695Z" fill="white"/>
<path d="M96.5891 25.7874C96.5891 24.8715 96.5724 24.0804 96.5225 23.356H97.7631L97.8131 24.8881H97.8797C98.2378 23.839 99.0871 23.1812 100.036 23.1812C100.195 23.1812 100.311 23.1978 100.436 23.2311V24.5634C100.294 24.5301 100.145 24.5134 99.953 24.5134C98.9538 24.5134 98.2461 25.2711 98.0546 26.3286C98.0213 26.5201 97.988 26.745 97.988 26.9864V31.1414H96.5891V25.7874Z" fill="white"/>
<path d="M102.484 27.511C102.518 29.4262 103.742 30.2172 105.149 30.2172C106.165 30.2172 106.772 30.0423 107.305 29.8175L107.547 30.825C107.047 31.0499 106.198 31.308 104.957 31.308C102.559 31.308 101.127 29.7343 101.127 27.3778C101.127 25.0297 102.509 23.1729 104.782 23.1729C107.322 23.1729 107.996 25.4127 107.996 26.8449C107.996 27.1363 107.963 27.3612 107.946 27.5027H102.484V27.511ZM106.639 26.4952C106.656 25.5959 106.264 24.197 104.674 24.197C103.242 24.197 102.617 25.521 102.501 26.4952H106.639Z" fill="white"/>
</svg>
