<svg width="119" height="42" viewBox="0 0 119 42" fill="none" xmlns="http://www.w3.org/2000/svg">
<path d="M111.648 41.6666H8.00575C3.94235 41.6666 0.65332 38.3692 0.65332 34.3141V7.35243C0.65332 3.28903 3.94235 0 8.00575 0H111.648C115.711 0 119 3.28903 119 7.35243V34.3141C119 38.3692 115.703 41.6666 111.648 41.6666Z" fill="black"/>
<path d="M40.8046 11.9489L40.205 13.7808H39.4307L41.4124 7.95215H42.32L44.3101 13.7808H43.5107L42.8862 11.9489H40.8046ZM42.7197 11.3661L42.1452 9.68409C42.0119 9.30107 41.9287 8.95967 41.8454 8.61828H41.8287C41.7455 8.968 41.6456 9.31772 41.5373 9.67577L40.9711 11.3661H42.7197Z" fill="white"/>
<path d="M45.2427 9.60059L46.0671 11.957C46.2086 12.3317 46.3169 12.6814 46.4001 13.0312H46.4251C46.5167 12.6814 46.6416 12.3401 46.7832 11.957L47.5992 9.60059H48.3902L46.7499 13.7889H46.0254L44.4351 9.60059H45.2427Z" fill="white"/>
<path d="M51.3962 13.7808L51.3379 13.2563H51.3129C51.0798 13.581 50.6301 13.8808 50.0306 13.8808C49.1813 13.8808 48.7483 13.2812 48.7483 12.6817C48.7483 11.6742 49.6476 11.1163 51.2629 11.1246V11.0414C51.2629 10.6917 51.1713 10.0755 50.3137 10.0755C49.9223 10.0755 49.5227 10.2004 49.2229 10.3836L49.0481 9.88398C49.3894 9.65916 49.8974 9.50928 50.4219 9.50928C51.7043 9.50928 52.0123 10.3836 52.0123 11.2162V12.7817C52.0123 13.148 52.029 13.4977 52.079 13.7892H51.3962V13.7808ZM51.2796 11.6492C50.4469 11.6326 49.506 11.7825 49.506 12.5901C49.506 13.0814 49.8308 13.3146 50.2221 13.3146C50.7633 13.3146 51.1131 12.9648 51.2296 12.6151C51.2546 12.5402 51.2713 12.4486 51.2713 12.3736V11.6492H51.2796Z" fill="white"/>
<path d="M54.094 8.41847C54.1023 8.67659 53.9108 8.88476 53.611 8.88476C53.3446 8.88476 53.1531 8.67659 53.1531 8.41847C53.1531 8.15201 53.3529 7.94385 53.6277 7.94385C53.9191 7.95217 54.094 8.15201 54.094 8.41847ZM53.2447 13.7808V9.59252H54.0107V13.7808H53.2447Z" fill="white"/>
<path d="M55.2681 7.64404H56.0341V13.7808H55.2681V7.64404Z" fill="white"/>
<path d="M59.631 13.7808L59.5727 13.2563H59.5478C59.3146 13.581 58.865 13.8808 58.2655 13.8808C57.4161 13.8808 56.9832 13.2812 56.9832 12.6817C56.9832 11.6742 57.8824 11.1163 59.4978 11.1246V11.0414C59.4978 10.6917 59.4062 10.0755 58.5486 10.0755C58.1572 10.0755 57.7575 10.2004 57.4578 10.3836L57.2829 9.88398C57.6243 9.65916 58.1322 9.50928 58.6568 9.50928C59.9391 9.50928 60.2472 10.3836 60.2472 11.2162V12.7817C60.2472 13.148 60.2639 13.4977 60.3138 13.7892H59.631V13.7808ZM59.5228 11.6492C58.6901 11.6326 57.7492 11.7825 57.7492 12.5901C57.7492 13.0814 58.0739 13.3146 58.4653 13.3146C59.0065 13.3146 59.3562 12.9648 59.4728 12.6151C59.4978 12.5402 59.5145 12.4486 59.5145 12.3736V11.6492H59.5228Z" fill="white"/>
<path d="M61.4465 13.7808C61.4632 13.4977 61.4798 13.073 61.4798 12.6983V7.64404H62.2376V10.2753H62.2542C62.5207 9.80897 63.0036 9.50921 63.6781 9.50921C64.7189 9.50921 65.4516 10.3752 65.4433 11.6408C65.4433 13.1396 64.5024 13.8807 63.5698 13.8807C62.9703 13.8807 62.479 13.6476 62.1709 13.098H62.146L62.1127 13.7891H61.4465V13.7808ZM62.2376 12.1071C62.2376 12.1987 62.2542 12.2986 62.2709 12.3819C62.4124 12.9065 62.8621 13.2729 63.4116 13.2729C64.2027 13.2729 64.6856 12.6234 64.6856 11.6658C64.6856 10.8248 64.2526 10.1087 63.4366 10.1087C62.9203 10.1087 62.4374 10.4668 62.2792 11.0413C62.2625 11.1246 62.2376 11.2328 62.2376 11.3494V12.1071Z" fill="white"/>
<path d="M66.4092 7.64404H67.1752V13.7808H66.4092V7.64404Z" fill="white"/>
<path d="M68.8738 11.8324C68.8905 12.8649 69.5483 13.2896 70.306 13.2896C70.8473 13.2896 71.1803 13.198 71.4634 13.0731L71.5966 13.6143C71.3302 13.7309 70.8722 13.8724 70.2061 13.8724C68.9155 13.8724 68.1494 13.0231 68.1494 11.7658C68.1494 10.5085 68.8905 9.50928 70.1145 9.50928C71.4801 9.50928 71.8464 10.7083 71.8464 11.4827C71.8464 11.6409 71.8298 11.7575 71.8215 11.8407H68.8738V11.8324ZM71.1054 11.2829C71.1137 10.7999 70.9055 10.0505 70.0479 10.0505C69.2735 10.0505 68.9404 10.7583 68.8822 11.2829H71.1054Z" fill="white"/>
<path d="M78.4077 11.6576C78.4077 13.2064 77.3336 13.8808 76.3261 13.8808C75.1936 13.8808 74.3193 13.0482 74.3193 11.7326C74.3193 10.3337 75.2353 9.50934 76.3927 9.50934C77.5917 9.50101 78.4077 10.3753 78.4077 11.6576ZM75.0854 11.6992C75.0854 12.6152 75.61 13.3063 76.3594 13.3063C77.0838 13.3063 77.6333 12.6235 77.6333 11.6826C77.6333 10.9748 77.2753 10.0755 76.376 10.0755C75.4767 10.0755 75.0854 10.9082 75.0854 11.6992Z" fill="white"/>
<path d="M79.3653 10.7333C79.3653 10.3003 79.357 9.95059 79.332 9.60087H80.0065L80.0481 10.292H80.0648C80.2729 9.8923 80.7559 9.50928 81.447 9.50928C82.0299 9.50928 82.9291 9.85067 82.9291 11.2912V13.7892H82.1714V11.3744C82.1714 10.7 81.9216 10.1421 81.2055 10.1421C80.7059 10.1421 80.3146 10.5001 80.1814 10.9165C80.148 11.0081 80.1314 11.1413 80.1314 11.2745V13.7892H79.3653V10.7333Z" fill="white"/>
<path d="M86.926 8.40186V9.60089H88.0168V10.1838H86.926V12.4403C86.926 12.9565 87.0675 13.2563 87.4922 13.2563C87.692 13.2563 87.8419 13.2313 87.9335 13.2063L87.9668 13.7725C87.8169 13.8308 87.5838 13.8808 87.2924 13.8808C86.9343 13.8808 86.6512 13.7642 86.468 13.5644C86.2515 13.3396 86.1766 12.9649 86.1766 12.4736V10.1921H85.5271V9.60922H86.1766V8.61002L86.926 8.40186Z" fill="white"/>
<path d="M88.866 7.64404H89.632V10.2586H89.6487C89.7736 10.0421 89.9651 9.85061 90.1899 9.71738C90.4147 9.58415 90.6812 9.50089 90.9643 9.50089C91.5222 9.50089 92.4298 9.84228 92.4298 11.2911V13.7808H91.6637V11.3744C91.6637 10.6999 91.4139 10.1337 90.6979 10.1337C90.2066 10.1337 89.8152 10.4834 89.6737 10.8914C89.632 10.9914 89.6237 11.1079 89.6237 11.2578V13.7808H88.8577V7.64404H88.866Z" fill="white"/>
<path d="M94.0953 11.8324C94.1119 12.8649 94.7697 13.2896 95.5275 13.2896C96.0687 13.2896 96.4018 13.198 96.6849 13.0731L96.8181 13.6143C96.5516 13.7309 96.0937 13.8724 95.4275 13.8724C94.1369 13.8724 93.3708 13.0231 93.3708 11.7658C93.3708 10.5085 94.1119 9.50928 95.3359 9.50928C96.7015 9.50928 97.0679 10.7083 97.0679 11.4827C97.0679 11.6409 97.0512 11.7575 97.0429 11.8407H94.0953V11.8324ZM96.3268 11.2829C96.3351 10.7999 96.127 10.0505 95.2693 10.0505C94.4949 10.0505 94.1619 10.7583 94.1036 11.2829H96.3268Z" fill="white"/>
<path d="M47.7072 29.1351C47.141 29.335 46.0335 29.668 44.7179 29.668C43.2441 29.668 42.0367 29.2933 41.0792 28.3857C40.2465 27.5781 39.7219 26.2791 39.7219 24.7636C39.7386 21.866 41.7286 19.7427 44.9927 19.7427C46.1168 19.7427 46.9994 19.9925 47.4158 20.1923L47.1077 21.2165C46.5914 20.9833 45.9419 20.7918 44.9594 20.7918C42.5863 20.7918 41.0459 22.2657 41.0459 24.7054C41.0459 27.1784 42.5363 28.6355 44.8012 28.6355C45.6255 28.6355 46.1834 28.519 46.4748 28.3774V25.4797H44.4931V24.4722H47.6989V29.1351H47.7072Z" fill="white"/>
<path d="M55.9922 26.0209C55.9922 28.6022 54.2019 29.7263 52.5116 29.7263C50.6215 29.7263 49.1643 28.3357 49.1643 26.1292C49.1643 23.7894 50.6964 22.4238 52.6282 22.4238C54.6349 22.4238 55.9922 23.881 55.9922 26.0209ZM50.4466 26.0876C50.4466 27.6197 51.3292 28.7687 52.5699 28.7687C53.7856 28.7687 54.6932 27.628 54.6932 26.0542C54.6932 24.8719 54.102 23.3731 52.6032 23.3731C51.1044 23.3731 50.4466 24.7553 50.4466 26.0876Z" fill="white"/>
<path d="M63.9275 26.0209C63.9275 28.6022 62.1372 29.7263 60.4469 29.7263C58.5568 29.7263 57.0996 28.3357 57.0996 26.1292C57.0996 23.7894 58.6317 22.4238 60.5635 22.4238C62.5702 22.4238 63.9275 23.881 63.9275 26.0209ZM58.3819 26.0876C58.3819 27.6197 59.2645 28.7687 60.5052 28.7687C61.7209 28.7687 62.6285 27.628 62.6285 26.0542C62.6285 24.8719 62.0373 23.3731 60.5385 23.3731C59.0397 23.3731 58.3819 24.7553 58.3819 26.0876Z" fill="white"/>
<path d="M71.5547 22.582C71.5297 23.0899 71.4964 23.6478 71.4964 24.5054V28.5605C71.4964 30.1676 71.18 31.1418 70.4972 31.7496C69.8228 32.3825 68.8402 32.5906 67.9576 32.5906C67.1249 32.5906 66.2007 32.3908 65.6345 32.0161L65.9509 31.0502C66.4172 31.3416 67.1333 31.5997 67.9992 31.5997C69.2982 31.5997 70.2474 30.9253 70.2474 29.16V28.3773H70.2224C69.8311 29.0268 69.0817 29.5514 67.9992 29.5514C66.2673 29.5514 65.0266 28.0776 65.0266 26.1458C65.0266 23.781 66.5754 22.4404 68.1741 22.4404C69.3898 22.4404 70.0476 23.0733 70.3557 23.6561H70.3806L70.4389 22.5986H71.5547V22.582ZM70.2391 25.3381C70.2391 25.1216 70.2224 24.9384 70.1642 24.7636C69.931 24.0308 69.3148 23.423 68.3906 23.423C67.1749 23.423 66.3089 24.4472 66.3089 26.0625C66.3089 27.4364 67 28.5772 68.3739 28.5772C69.1566 28.5772 69.8644 28.0859 70.1392 27.2782C70.2141 27.0617 70.2391 26.8119 70.2391 26.6038V25.3381Z" fill="white"/>
<path d="M73.6113 19.3179H74.8853V29.568H73.6113V19.3179Z" fill="white"/>
<path d="M77.7247 26.3041C77.7497 28.0194 78.8488 28.7271 80.1228 28.7271C81.0304 28.7271 81.58 28.5689 82.0546 28.3608L82.2711 29.2684C81.8214 29.4682 81.0554 29.7013 79.9479 29.7013C77.7997 29.7013 76.509 28.2858 76.509 26.1792C76.509 24.0725 77.7497 22.4155 79.7897 22.4155C82.0712 22.4155 82.6791 24.4223 82.6791 25.7046C82.6791 25.9627 82.6541 26.1708 82.6374 26.2957H77.7247V26.3041ZM81.4551 25.3965C81.4717 24.5888 81.122 23.3315 79.6981 23.3315C78.4158 23.3315 77.8496 24.5138 77.7497 25.3965H81.4551Z" fill="white"/>
<path d="M87.3669 19.9508C87.9748 19.8509 88.7658 19.7593 89.7817 19.7593C91.0223 19.7593 91.9299 20.0507 92.5128 20.567C93.0457 21.0249 93.3621 21.7327 93.3621 22.607C93.3621 23.4896 93.104 24.1807 92.6127 24.6887C91.9466 25.3964 90.8641 25.7545 89.6401 25.7545C89.2654 25.7545 88.9157 25.7378 88.6326 25.6712V29.5681H87.3753V19.9508H87.3669ZM88.6243 24.6387C88.899 24.7136 89.2404 24.7386 89.6651 24.7386C91.1806 24.7386 92.1048 24.0059 92.1048 22.657C92.1048 21.3746 91.1972 20.7501 89.8067 20.7501C89.2571 20.7501 88.8408 20.7918 88.6243 20.8501V24.6387Z" fill="white"/>
<path d="M94.936 19.3179H96.21V29.568H94.936V19.3179Z" fill="white"/>
<path d="M102.222 29.5681L102.122 28.6854H102.08C101.689 29.235 100.939 29.7263 99.9402 29.7263C98.5247 29.7263 97.8003 28.7271 97.8003 27.7196C97.8003 26.0292 99.2991 25.105 102.005 25.1216V24.9801C102.005 24.4055 101.847 23.3647 100.415 23.3647C99.7654 23.3647 99.0826 23.5646 98.5997 23.881L98.3082 23.0483C98.8828 22.6736 99.7238 22.4321 100.606 22.4321C102.746 22.4321 103.263 23.8893 103.263 25.2882V27.9027C103.263 28.5106 103.288 29.1018 103.379 29.5764H102.222V29.5681ZM102.03 26.0043C100.64 25.9793 99.0743 26.2208 99.0743 27.578C99.0743 28.4023 99.6238 28.7937 100.273 28.7937C101.181 28.7937 101.764 28.2108 101.964 27.6196C102.005 27.4864 102.039 27.3449 102.039 27.2116V26.0043H102.03Z" fill="white"/>
<path d="M105.661 22.582L107.193 26.7121C107.351 27.1783 107.526 27.7196 107.642 28.1442H107.667C107.8 27.7279 107.942 27.195 108.117 26.6871L109.499 22.5904H110.84L108.933 27.5697C108.025 29.9678 107.401 31.1918 106.535 31.9412C105.919 32.4907 105.294 32.7072 104.978 32.7655L104.661 31.6997C104.978 31.5998 105.394 31.3916 105.777 31.0752C106.127 30.8004 106.56 30.3092 106.843 29.6597C106.901 29.5265 106.943 29.4265 106.943 29.3516C106.943 29.2767 106.918 29.1767 106.86 29.0185L104.278 22.582H105.661Z" fill="white"/>
<path d="M32.3363 19.8676L27.4819 17.0615L23.4851 20.9251L27.1322 24.4556L32.328 21.458C32.6111 21.2915 32.786 21 32.786 20.667C32.7943 20.3256 32.6194 20.0341 32.3363 19.8676Z" fill="#FFCE00"/>
<path d="M26.6575 16.5868L21.3118 13.506L9.60449 7.50244L22.8272 20.2922L26.6575 16.5868Z" fill="#00F076"/>
<path d="M9.7959 34.1563L21.3283 27.8031L26.3076 24.9304L22.8271 21.5664L9.7959 34.1563Z" fill="#F83547"/>
<path d="M8.82183 8.01855L8.80518 33.8395L22.1695 20.9249L8.82183 8.01855Z" fill="#00CCFF"/>
</svg>
